<svg width="359" height="105" viewBox="0 0 359 105" fill="none" xmlns="http://www.w3.org/2000/svg">
<g clip-path="url(#clip0_2303_4629)">
<g filter="url(#filter0_b_2303_4629)">
<rect width="359" height="105" rx="13" fill="#F5F5F5" fill-opacity="0.6"/>
</g>
<path d="M13.3477 74V63.4312H16.9731C20.1079 63.4312 21.9609 65.3867 21.9609 68.7046V68.7192C21.9609 72.0444 20.1152 74 16.9731 74H13.3477ZM14.666 72.8135H16.8853C19.2437 72.8135 20.6133 71.3047 20.6133 68.7339V68.7192C20.6133 66.1411 19.229 64.6177 16.8853 64.6177H14.666V72.8135ZM26.489 74.1392C24.6946 74.1392 23.7717 73.0845 23.7717 71.2168V66.1045H25.0461V70.9092C25.0461 72.3301 25.5588 73.0112 26.8186 73.0112C28.2102 73.0112 28.9499 72.1616 28.9499 70.7773V66.1045H30.2244V74H28.9499V72.8208H28.8328C28.4446 73.6631 27.6462 74.1392 26.489 74.1392ZM36.8708 74V67.1592H35.5598V66.1045H36.8708V65.2256C36.8708 63.6509 37.6618 62.8965 39.1633 62.8965C39.4709 62.8965 39.7492 62.9185 40.0129 62.9697V63.9878C39.8591 63.9585 39.6467 63.9512 39.4196 63.9512C38.5114 63.9512 38.1452 64.3979 38.1452 65.2622V66.1045H39.9397V67.1592H38.1452V74H36.8708ZM44.2627 64.9766C43.3252 64.9766 42.5781 64.2368 42.5781 63.3359V63.3286C42.5781 62.4204 43.3252 61.6953 44.2627 61.6953C45.2002 61.6953 45.9472 62.4204 45.9472 63.3286V63.3359C45.9472 64.2368 45.2002 64.9766 44.2627 64.9766ZM44.2627 64.2368C44.7754 64.2368 45.1782 63.834 45.1782 63.3359V63.3286C45.1782 62.8306 44.7754 62.4351 44.2627 62.4351C43.75 62.4351 43.3471 62.8306 43.3471 63.3286V63.3359C43.3471 63.834 43.75 64.2368 44.2627 64.2368ZM43.4863 74.1392C41.9848 74.1392 40.8496 73.231 40.8496 71.7954V71.7808C40.8496 70.3745 41.8896 69.5615 43.728 69.4517L45.9912 69.3125V68.5947C45.9912 67.6206 45.3979 67.0933 44.2187 67.0933C43.2739 67.0933 42.6513 67.4448 42.4463 68.0601L42.4389 68.082H41.1645L41.1718 68.0381C41.3769 66.8003 42.5781 65.9653 44.2627 65.9653C46.1889 65.9653 47.2656 66.9541 47.2656 68.5947V74H45.9912V72.8354H45.874C45.3759 73.6777 44.5483 74.1392 43.4863 74.1392ZM42.1533 71.7661C42.1533 72.5645 42.8344 73.0332 43.75 73.0332C45.0463 73.0332 45.9912 72.1836 45.9912 71.0557V70.3379L43.8818 70.4697C42.6806 70.543 42.1533 70.9678 42.1533 71.7515V71.7661ZM49.3547 74V66.1045H50.6291V67.2764H50.7463C51.0466 66.4487 51.7863 65.9653 52.8557 65.9653C53.0974 65.9653 53.3684 65.9946 53.4929 66.0166V67.2544C53.2292 67.2104 52.9875 67.1812 52.7092 67.1812C51.4934 67.1812 50.6291 67.9502 50.6291 69.1074V74H49.3547ZM58.8063 74V66.1045H60.0807V67.291H60.1979C60.5934 66.4561 61.3332 65.9653 62.4977 65.9653C64.2702 65.9653 65.259 67.0127 65.259 68.8877V74H63.9846V69.1953C63.9846 67.7744 63.3986 67.0933 62.1388 67.0933C60.8791 67.0933 60.0807 67.9429 60.0807 69.3271V74H58.8063ZM70.2704 64.9766C69.3329 64.9766 68.5859 64.2368 68.5859 63.3359V63.3286C68.5859 62.4204 69.3329 61.6953 70.2704 61.6953C71.2079 61.6953 71.955 62.4204 71.955 63.3286V63.3359C71.955 64.2368 71.2079 64.9766 70.2704 64.9766ZM70.2704 64.2368C70.7831 64.2368 71.186 63.834 71.186 63.3359V63.3286C71.186 62.8306 70.7831 62.4351 70.2704 62.4351C69.7577 62.4351 69.3549 62.8306 69.3549 63.3286V63.3359C69.3549 63.834 69.7577 64.2368 70.2704 64.2368ZM69.4941 74.1392C67.9926 74.1392 66.8573 73.231 66.8573 71.7954V71.7808C66.8573 70.3745 67.8974 69.5615 69.7358 69.4517L71.9989 69.3125V68.5947C71.9989 67.6206 71.4057 67.0933 70.2265 67.0933C69.2817 67.0933 68.6591 67.4448 68.454 68.0601L68.4467 68.082H67.1723L67.1796 68.0381C67.3847 66.8003 68.5859 65.9653 70.2704 65.9653C72.1967 65.9653 73.2734 66.9541 73.2734 68.5947V74H71.9989V72.8354H71.8818C71.3837 73.6777 70.5561 74.1392 69.4941 74.1392ZM68.1611 71.7661C68.1611 72.5645 68.8422 73.0332 69.7577 73.0332C71.0541 73.0332 71.9989 72.1836 71.9989 71.0557V70.3379L69.8896 70.4697C68.6884 70.543 68.1611 70.9678 68.1611 71.7515V71.7661ZM79.3412 74V66.1045H80.6156V67.291H80.7328C81.1283 66.4561 81.8681 65.9653 83.0326 65.9653C84.8051 65.9653 85.7938 67.0127 85.7938 68.8877V74H84.5194V69.1953C84.5194 67.7744 83.9335 67.0933 82.6737 67.0933C81.414 67.0933 80.6156 67.9429 80.6156 69.3271V74H79.3412ZM91.0836 74.1392C88.8278 74.1392 87.4655 72.5571 87.4655 70.0815V70.0742C87.4655 67.6353 88.8571 65.9653 91.0031 65.9653C93.1491 65.9653 94.4528 67.562 94.4528 69.9204V70.4185H88.7692C88.8058 72.0518 89.7067 73.0039 91.1129 73.0039C92.1823 73.0039 92.8414 72.4985 93.0538 72.0225L93.0831 71.9565H94.3576L94.3429 72.0151C94.0719 73.0845 92.944 74.1392 91.0836 74.1392ZM90.9957 67.1006C89.8239 67.1006 88.9303 67.8989 88.7912 69.4004H93.1564C93.0246 67.8403 92.1603 67.1006 90.9957 67.1006ZM98.9003 74.1392C97.1425 74.1392 95.934 73.2896 95.7875 71.9858H97.0912C97.3036 72.645 97.9335 73.0771 98.9442 73.0771C100.006 73.0771 100.761 72.5718 100.761 71.854V71.8394C100.761 71.3047 100.358 70.9312 99.3837 70.6968L98.1605 70.4038C96.681 70.0522 96.0145 69.4077 96.0145 68.2725V68.2651C96.0145 66.9541 97.2743 65.9653 98.9515 65.9653C100.607 65.9653 101.757 66.793 101.933 68.082H100.68C100.512 67.4595 99.8964 67.0273 98.9442 67.0273C98.0067 67.0273 97.3182 67.5107 97.3182 68.2065V68.2212C97.3182 68.7559 97.7138 69.0928 98.6439 69.3198L99.8597 69.6128C101.347 69.9717 102.064 70.6162 102.064 71.7441V71.7588C102.064 73.165 100.695 74.1392 98.9003 74.1392ZM106.534 74.0586C104.908 74.0586 104.227 73.458 104.227 71.9492V67.1592H102.982V66.1045H104.227V64.061H105.545V66.1045H107.274V67.1592H105.545V71.627C105.545 72.5571 105.867 72.9307 106.688 72.9307C106.915 72.9307 107.039 72.9233 107.274 72.9014V73.9854C107.025 74.0293 106.783 74.0586 106.534 74.0586ZM112.043 74.1392C109.787 74.1392 108.425 72.5571 108.425 70.0815V70.0742C108.425 67.6353 109.817 65.9653 111.963 65.9653C114.109 65.9653 115.412 67.562 115.412 69.9204V70.4185H109.729C109.765 72.0518 110.666 73.0039 112.073 73.0039C113.142 73.0039 113.801 72.4985 114.014 72.0225L114.043 71.9565H115.317L115.303 72.0151C115.032 73.0845 113.904 74.1392 112.043 74.1392ZM111.955 67.1006C110.784 67.1006 109.89 67.8989 109.751 69.4004H114.116C113.984 67.8403 113.12 67.1006 111.955 67.1006ZM117.15 74V66.1045H118.424V67.291H118.542C118.937 66.4561 119.677 65.9653 120.841 65.9653C122.614 65.9653 123.603 67.0127 123.603 68.8877V74H122.328V69.1953C122.328 67.7744 121.742 67.0933 120.483 67.0933C119.223 67.0933 118.424 67.9429 118.424 69.3271V74H117.15ZM131.816 74.1392C130.315 74.1392 129.18 73.231 129.18 71.7954V71.7808C129.18 70.3745 130.22 69.5615 132.058 69.4517L134.321 69.3125V68.5947C134.321 67.6206 133.728 67.0933 132.549 67.0933C131.604 67.0933 130.982 67.4448 130.776 68.0601L130.769 68.082H129.495L129.502 68.0381C129.707 66.8003 130.908 65.9653 132.593 65.9653C134.519 65.9653 135.596 66.9541 135.596 68.5947V74H134.321V72.8354H134.204C133.706 73.6777 132.878 74.1392 131.816 74.1392ZM130.483 71.7661C130.483 72.5645 131.165 73.0332 132.08 73.0332C133.377 73.0332 134.321 72.1836 134.321 71.0557V70.3379L132.212 70.4697C131.011 70.543 130.483 70.9678 130.483 71.7515V71.7661ZM137.758 74V62.9697H139.033V74H137.758ZM141.312 74V62.9697H142.586V74H141.312ZM148.015 74.1392C145.76 74.1392 144.397 72.5571 144.397 70.0815V70.0742C144.397 67.6353 145.789 65.9653 147.935 65.9653C150.081 65.9653 151.385 67.562 151.385 69.9204V70.4185H145.701C145.738 72.0518 146.638 73.0039 148.045 73.0039C149.114 73.0039 149.773 72.4985 149.986 72.0225L150.015 71.9565H151.289L151.275 72.0151C151.004 73.0845 149.876 74.1392 148.015 74.1392ZM147.928 67.1006C146.756 67.1006 145.862 67.8989 145.723 69.4004H150.088C149.956 67.8403 149.092 67.1006 147.928 67.1006ZM159.335 74L156.412 66.1045H157.76L159.921 72.6084H160.038L162.199 66.1045H163.546L160.624 74H159.335ZM167.642 64.9766C166.705 64.9766 165.958 64.2368 165.958 63.3359V63.3286C165.958 62.4204 166.705 61.6953 167.642 61.6953C168.58 61.6953 169.327 62.4204 169.327 63.3286V63.3359C169.327 64.2368 168.58 64.9766 167.642 64.9766ZM167.642 64.2368C168.155 64.2368 168.558 63.834 168.558 63.3359V63.3286C168.558 62.8306 168.155 62.4351 167.642 62.4351C167.129 62.4351 166.727 62.8306 166.727 63.3286V63.3359C166.727 63.834 167.129 64.2368 167.642 64.2368ZM166.866 74.1392C165.364 74.1392 164.229 73.231 164.229 71.7954V71.7808C164.229 70.3745 165.269 69.5615 167.107 69.4517L169.371 69.3125V68.5947C169.371 67.6206 168.777 67.0933 167.598 67.0933C166.653 67.0933 166.031 67.4448 165.826 68.0601L165.818 68.082H164.544L164.551 68.0381C164.756 66.8003 165.958 65.9653 167.642 65.9653C169.568 65.9653 170.645 66.9541 170.645 68.5947V74H169.371V72.8354H169.253C168.755 73.6777 167.928 74.1392 166.866 74.1392ZM165.533 71.7661C165.533 72.5645 166.214 73.0332 167.129 73.0332C168.426 73.0332 169.371 72.1836 169.371 71.0557V70.3379L167.261 70.4697C166.06 70.543 165.533 70.9678 165.533 71.7515V71.7661ZM172.734 74V66.1045H174.009V67.2764H174.126C174.426 66.4487 175.166 65.9653 176.235 65.9653C176.477 65.9653 176.748 65.9946 176.872 66.0166V67.2544C176.609 67.2104 176.367 67.1812 176.089 67.1812C174.873 67.1812 174.009 67.9502 174.009 69.1074V74H172.734ZM181.21 74.1392C178.954 74.1392 177.592 72.5571 177.592 70.0815V70.0742C177.592 67.6353 178.983 65.9653 181.129 65.9653C183.275 65.9653 184.579 67.562 184.579 69.9204V70.4185H178.896C178.932 72.0518 179.833 73.0039 181.239 73.0039C182.309 73.0039 182.968 72.4985 183.18 72.0225L183.209 71.9565H184.484L184.469 72.0151C184.198 73.0845 183.07 74.1392 181.21 74.1392ZM181.122 67.1006C179.95 67.1006 179.057 67.8989 178.917 69.4004H183.283C183.151 67.8403 182.287 67.1006 181.122 67.1006ZM190.295 76.6367V66.1045H191.57V67.3643H191.687C192.17 66.4854 193.049 65.9653 194.148 65.9653C196.147 65.9653 197.458 67.584 197.458 70.0449V70.0596C197.458 72.5352 196.155 74.1392 194.148 74.1392C193.064 74.1392 192.119 73.5972 191.687 72.7549H191.57V76.6367H190.295ZM193.855 73.0112C195.298 73.0112 196.155 71.8979 196.155 70.0596V70.0449C196.155 68.2065 195.298 67.0933 193.855 67.0933C192.419 67.0933 191.541 68.2212 191.541 70.0449V70.0596C191.541 71.8833 192.419 73.0112 193.855 73.0112ZM199.884 64.5811C199.401 64.5811 199.006 64.1855 199.006 63.7021C199.006 63.2188 199.401 62.8232 199.884 62.8232C200.368 62.8232 200.763 63.2188 200.763 63.7021C200.763 64.1855 200.368 64.5811 199.884 64.5811ZM199.24 74V66.1045H200.514V74H199.24ZM202.494 74V73.0771L207.049 67.2764V67.1592H202.501V66.1045H208.551V67.0493L204.017 72.8281V72.9453H208.573V74H202.494ZM210.34 74V73.0771L214.895 67.2764V67.1592H210.347V66.1045H216.397V67.0493L211.863 72.8281V72.9453H216.419V74H210.34ZM220.537 74.1392C219.035 74.1392 217.9 73.231 217.9 71.7954V71.7808C217.9 70.3745 218.94 69.5615 220.778 69.4517L223.041 69.3125V68.5947C223.041 67.6206 222.448 67.0933 221.269 67.0933C220.324 67.0933 219.702 67.4448 219.497 68.0601L219.489 68.082H218.215L218.222 68.0381C218.427 66.8003 219.628 65.9653 221.313 65.9653C223.239 65.9653 224.316 66.9541 224.316 68.5947V74H223.041V72.8354H222.924C222.426 73.6777 221.599 74.1392 220.537 74.1392ZM219.204 71.7661C219.204 72.5645 219.885 73.0332 220.8 73.0332C222.097 73.0332 223.041 72.1836 223.041 71.0557V70.3379L220.932 70.4697C219.731 70.543 219.204 70.9678 219.204 71.7515V71.7661ZM229.628 74.1392C227.372 74.1392 226.009 72.5571 226.009 70.0815V70.0742C226.009 67.6353 227.401 65.9653 229.547 65.9653C231.693 65.9653 232.997 67.562 232.997 69.9204V70.4185H227.313C227.35 72.0518 228.251 73.0039 229.657 73.0039C230.726 73.0039 231.385 72.4985 231.598 72.0225L231.627 71.9565H232.902L232.887 72.0151C232.616 73.0845 231.488 74.1392 229.628 74.1392ZM229.54 67.1006C228.368 67.1006 227.474 67.8989 227.335 69.4004H231.7C231.569 67.8403 230.704 67.1006 229.54 67.1006ZM234.734 74V66.1045H236.009V67.2764H236.126C236.426 66.4487 237.166 65.9653 238.235 65.9653C238.477 65.9653 238.748 65.9946 238.872 66.0166V67.2544C238.609 67.2104 238.367 67.1812 238.089 67.1812C236.873 67.1812 236.009 67.9502 236.009 69.1074V74H234.734ZM244.86 64.5811C244.376 64.5811 243.981 64.1855 243.981 63.7021C243.981 63.2188 244.376 62.8232 244.86 62.8232C245.343 62.8232 245.739 63.2188 245.739 63.7021C245.739 64.1855 245.343 64.5811 244.86 64.5811ZM244.215 74V66.1045H245.49V74H244.215ZM254.883 76.7832C252.978 76.7832 251.763 75.9263 251.565 74.6299L251.579 74.6226H252.898L252.905 74.6299C253.044 75.2305 253.747 75.6553 254.883 75.6553C256.296 75.6553 257.139 74.9888 257.139 73.8242V72.2275H257.021C256.523 73.0991 255.63 73.5898 254.546 73.5898C252.502 73.5898 251.235 72.0078 251.235 69.7959V69.7812C251.235 67.5693 252.51 65.9653 254.575 65.9653C255.688 65.9653 256.553 66.5146 257.036 67.4082H257.124V66.1045H258.398V73.8901C258.398 75.6553 257.036 76.7832 254.883 76.7832ZM254.824 72.4619C256.289 72.4619 257.168 71.3633 257.168 69.7959V69.7812C257.168 68.2139 256.282 67.0933 254.824 67.0933C253.359 67.0933 252.539 68.2139 252.539 69.7812V69.7959C252.539 71.3633 253.359 72.4619 254.824 72.4619ZM260.605 74V62.9697H261.879V74H260.605ZM266.729 74.1392C264.935 74.1392 264.012 73.0845 264.012 71.2168V66.1045H265.286V70.9092C265.286 72.3301 265.799 73.0112 267.059 73.0112C268.451 73.0112 269.19 72.1616 269.19 70.7773V66.1045H270.465V74H269.19V72.8208H269.073C268.685 73.6631 267.887 74.1392 266.729 74.1392ZM275.41 74.0586C273.784 74.0586 273.103 73.458 273.103 71.9492V67.1592H271.858V66.1045H273.103V64.061H274.421V66.1045H276.15V67.1592H274.421V71.627C274.421 72.5571 274.744 72.9307 275.564 72.9307C275.791 72.9307 275.916 72.9233 276.15 72.9014V73.9854C275.901 74.0293 275.659 74.0586 275.41 74.0586ZM280.92 74.1392C278.664 74.1392 277.302 72.5571 277.302 70.0815V70.0742C277.302 67.6353 278.693 65.9653 280.839 65.9653C282.985 65.9653 284.289 67.562 284.289 69.9204V70.4185H278.605C278.642 72.0518 279.543 73.0039 280.949 73.0039C282.018 73.0039 282.678 72.4985 282.89 72.0225L282.919 71.9565H284.194L284.179 72.0151C283.908 73.0845 282.78 74.1392 280.92 74.1392ZM280.832 67.1006C279.66 67.1006 278.766 67.8989 278.627 69.4004H282.993C282.861 67.8403 281.996 67.1006 280.832 67.1006ZM286.026 74V66.1045H287.301V67.291H287.418C287.814 66.4561 288.553 65.9653 289.718 65.9653C291.49 65.9653 292.479 67.0127 292.479 68.8877V74H291.205V69.1953C291.205 67.7744 290.619 67.0933 289.359 67.0933C288.099 67.0933 287.301 67.9429 287.301 69.3271V74H286.026ZM295.074 74V67.1592H293.763V66.1045H295.074V65.2256C295.074 63.6509 295.865 62.8965 297.366 62.8965C297.674 62.8965 297.952 62.9185 298.216 62.9697V63.9878C298.062 63.9585 297.849 63.9512 297.622 63.9512C296.714 63.9512 296.348 64.3979 296.348 65.2622V66.1045H298.142V67.1592H296.348V74H295.074ZM299.741 74V66.1045H301.015V67.2764H301.132C301.433 66.4487 302.172 65.9653 303.242 65.9653C303.483 65.9653 303.754 65.9946 303.879 66.0166V67.2544C303.615 67.2104 303.374 67.1812 303.095 67.1812C301.879 67.1812 301.015 67.9502 301.015 69.1074V74H299.741ZM305.888 64.5811C305.404 64.5811 305.009 64.1855 305.009 63.7021C305.009 63.2188 305.404 62.8232 305.888 62.8232C306.371 62.8232 306.766 63.2188 306.766 63.7021C306.766 64.1855 306.371 64.5811 305.888 64.5811ZM305.243 74V66.1045H306.517V74H305.243ZM15.4204 92L12.498 84.1045H13.8457L16.0063 90.6084H16.1235L18.2842 84.1045H19.6318L16.7095 92H15.4204ZM22.9514 92.1392C21.4499 92.1392 20.3147 91.231 20.3147 89.7954V89.7808C20.3147 88.3745 21.3547 87.5615 23.1931 87.4517L25.4563 87.3125V86.5947C25.4563 85.6206 24.863 85.0933 23.6838 85.0933C22.739 85.0933 22.1164 85.4448 21.9114 86.0601L21.904 86.082H20.6296L20.637 86.0381C20.842 84.8003 22.0432 83.9653 23.7278 83.9653C25.654 83.9653 26.7307 84.9541 26.7307 86.5947V92H25.4563V90.8354H25.3391C24.8411 91.6777 24.0134 92.1392 22.9514 92.1392ZM21.6184 89.7661C21.6184 90.5645 22.2996 91.0332 23.2151 91.0332C24.5115 91.0332 25.4563 90.1836 25.4563 89.0557V88.3379L23.3469 88.4697C22.1457 88.543 21.6184 88.9678 21.6184 89.7515V89.7661ZM28.8198 92V84.1045H30.0942V85.2764H30.2114C30.5117 84.4487 31.2514 83.9653 32.3208 83.9653C32.5625 83.9653 32.8335 83.9946 32.958 84.0166V85.2544C32.6943 85.2104 32.4526 85.1812 32.1743 85.1812C30.9585 85.1812 30.0942 85.9502 30.0942 87.1074V92H28.8198ZM34.9665 82.5811C34.4831 82.5811 34.0876 82.1855 34.0876 81.7021C34.0876 81.2188 34.4831 80.8232 34.9665 80.8232C35.4499 80.8232 35.8454 81.2188 35.8454 81.7021C35.8454 82.1855 35.4499 82.5811 34.9665 82.5811ZM34.322 92V84.1045H35.5964V92H34.322ZM39.9267 92.1392C38.4253 92.1392 37.29 91.231 37.29 89.7954V89.7808C37.29 88.3745 38.33 87.5615 40.1684 87.4517L42.4316 87.3125V86.5947C42.4316 85.6206 41.8383 85.0933 40.6591 85.0933C39.7143 85.0933 39.0918 85.4448 38.8867 86.0601L38.8794 86.082H37.6049L37.6123 86.0381C37.8173 84.8003 39.0185 83.9653 40.7031 83.9653C42.6294 83.9653 43.706 84.9541 43.706 86.5947V92H42.4316V90.8354H42.3144C41.8164 91.6777 40.9887 92.1392 39.9267 92.1392ZM38.5937 89.7661C38.5937 90.5645 39.2749 91.0332 40.1904 91.0332C41.4868 91.0332 42.4316 90.1836 42.4316 89.0557V88.3379L40.3222 88.4697C39.1211 88.543 38.5937 88.9678 38.5937 89.7515V89.7661ZM45.7951 92V84.1045H47.0695V85.291H47.1867C47.5822 84.4561 48.322 83.9653 49.4865 83.9653C51.259 83.9653 52.2478 85.0127 52.2478 86.8877V92H50.9733V87.1953C50.9733 85.7744 50.3874 85.0933 49.1276 85.0933C47.8679 85.0933 47.0695 85.9429 47.0695 87.3271V92H45.7951ZM57.1201 92.0586C55.4941 92.0586 54.8129 91.458 54.8129 89.9492V85.1592H53.5678V84.1045H54.8129V82.061H56.1313V84.1045H57.8598V85.1592H56.1313V89.627C56.1313 90.5571 56.4536 90.9307 57.2739 90.9307C57.5009 90.9307 57.6254 90.9233 57.8598 90.9014V91.9854C57.6108 92.0293 57.3691 92.0586 57.1201 92.0586Z" fill="black"/>
<path d="M13.3037 53V42.4312H17.5225C19.6685 42.4312 21.1187 43.8447 21.1187 45.9614V45.9761C21.1187 48.0854 19.6685 49.5063 17.5225 49.5063H15.1934V53H13.3037ZM17.061 43.9766H15.1934V47.9829H17.061C18.416 47.9829 19.207 47.2505 19.207 45.9834V45.9688C19.207 44.7017 18.416 43.9766 17.061 43.9766ZM25.9836 53.1611C23.6033 53.1611 22.1604 51.5645 22.1604 49.0156V49.0083C22.1604 46.4888 23.6179 44.8408 25.8957 44.8408C28.1736 44.8408 29.5798 46.4375 29.5798 48.8545V49.4551H23.9841C24.0061 50.8906 24.7825 51.7256 26.0203 51.7256C27.009 51.7256 27.573 51.2275 27.7488 50.8613L27.7707 50.8101H29.5066L29.4846 50.876C29.2283 51.9087 28.1589 53.1611 25.9836 53.1611ZM25.9177 46.269C24.8996 46.269 24.1379 46.9575 23.9988 48.2319H27.8C27.6755 46.9209 26.9358 46.269 25.9177 46.269ZM31.1636 55.6587V44.9946H32.9873V46.2471H33.1118C33.5513 45.3755 34.4228 44.8628 35.5434 44.8628C37.5503 44.8628 38.832 46.4595 38.832 48.9937V49.0083C38.832 51.5571 37.5722 53.1318 35.5434 53.1318C34.4448 53.1318 33.5293 52.5898 33.1118 51.7256H32.9873V55.6587H31.1636ZM34.9721 51.5938C36.2173 51.5938 36.9717 50.6123 36.9717 49.0083V48.9937C36.9717 47.3823 36.2173 46.4009 34.9721 46.4009C33.7344 46.4009 32.9653 47.3823 32.9653 48.9863V49.001C32.9653 50.605 33.7344 51.5938 34.9721 51.5938ZM40.4304 55.6587V44.9946H42.2541V46.2471H42.3786C42.8181 45.3755 43.6897 44.8628 44.8103 44.8628C46.8171 44.8628 48.0988 46.4595 48.0988 48.9937V49.0083C48.0988 51.5571 46.8391 53.1318 44.8103 53.1318C43.7116 53.1318 42.7961 52.5898 42.3786 51.7256H42.2541V55.6587H40.4304ZM44.239 51.5938C45.4841 51.5938 46.2385 50.6123 46.2385 49.0083V48.9937C46.2385 47.3823 45.4841 46.4009 44.239 46.4009C43.0012 46.4009 42.2321 47.3823 42.2321 48.9863V49.001C42.2321 50.605 43.0012 51.5938 44.239 51.5938ZM53.125 53.1611C50.7446 53.1611 49.3017 51.5645 49.3017 49.0156V49.0083C49.3017 46.4888 50.7592 44.8408 53.0371 44.8408C55.3149 44.8408 56.7212 46.4375 56.7212 48.8545V49.4551H51.1255C51.1474 50.8906 51.9238 51.7256 53.1616 51.7256C54.1504 51.7256 54.7143 51.2275 54.8901 50.8613L54.9121 50.8101H56.6479L56.6259 50.876C56.3696 51.9087 55.3003 53.1611 53.125 53.1611ZM53.059 46.269C52.041 46.269 51.2793 46.9575 51.1401 48.2319H54.9414C54.8169 46.9209 54.0771 46.269 53.059 46.269ZM61.3298 53.1611C59.2937 53.1611 58.0632 52.2236 57.9094 50.8687V50.854H59.7185L59.7258 50.8687C59.9162 51.4253 60.4509 51.8135 61.3591 51.8135C62.2673 51.8135 62.8972 51.4033 62.8972 50.8027V50.7881C62.8972 50.3193 62.5456 50.0117 61.6667 49.814L60.3703 49.521C58.8469 49.1841 58.1218 48.4663 58.1218 47.2871V47.2798C58.1218 45.8369 59.4401 44.8408 61.3298 44.8408C63.278 44.8408 64.4426 45.8076 64.5598 47.104V47.1187H62.8459L62.8386 47.0967C62.7067 46.5913 62.1794 46.1812 61.3225 46.1812C60.5095 46.1812 59.9235 46.5767 59.9235 47.1772V47.1846C59.9235 47.6533 60.2604 47.939 61.1247 48.1367L62.4211 48.4224C63.9885 48.7739 64.7282 49.4404 64.7282 50.605V50.6196C64.7282 52.1431 63.3 53.1611 61.3298 53.1611ZM70.2761 53V42.4312H74.4948C76.6408 42.4312 78.091 43.8447 78.091 45.9614V45.9761C78.091 48.0854 76.6408 49.5063 74.4948 49.5063H72.1657V53H70.2761ZM74.0334 43.9766H72.1657V47.9829H74.0334C75.3884 47.9829 76.1794 47.2505 76.1794 45.9834V45.9688C76.1794 44.7017 75.3884 43.9766 74.0334 43.9766ZM80.6855 43.6543C80.0849 43.6543 79.5942 43.1782 79.5942 42.5776C79.5942 41.9844 80.0849 41.501 80.6855 41.501C81.2787 41.501 81.7695 41.9844 81.7695 42.5776C81.7695 43.1782 81.2787 43.6543 80.6855 43.6543ZM79.7699 53V44.9946H81.5937V53H79.7699ZM83.4118 53V51.8867L87.6818 46.5327V46.4082H83.4484V44.9946H89.8351V46.2104L85.7189 51.4619V51.5938H89.901V53H83.4118ZM91.5214 53V51.8867L95.7914 46.5327V46.4082H91.558V44.9946H97.9447V46.2104L93.8285 51.4619V51.5938H98.0106V53H91.5214ZM101.997 53.1318C100.473 53.1318 99.3673 52.1943 99.3673 50.7368V50.7222C99.3673 49.2939 100.459 48.459 102.407 48.3418L104.465 48.2173V47.5288C104.465 46.7305 103.945 46.291 102.964 46.291C102.129 46.291 101.587 46.5913 101.403 47.1187L101.396 47.1479H99.6749L99.6823 47.082C99.858 45.7344 101.147 44.8408 103.051 44.8408C105.11 44.8408 106.267 45.8369 106.267 47.5288V53H104.465V51.9014H104.34C103.901 52.6777 103.051 53.1318 101.997 53.1318ZM101.169 50.6489C101.169 51.3301 101.748 51.7329 102.553 51.7329C103.652 51.7329 104.465 51.0151 104.465 50.063V49.4185L102.663 49.5356C101.645 49.6016 101.169 49.9751 101.169 50.6343V50.6489ZM112.012 49.5649V47.9097H116.905V49.5649H112.012ZM122.892 53V42.4312H124.533L129.726 49.7114H129.843V42.4312H131.659V53H130.026L124.833 45.7197H124.716V53H122.892ZM137.081 43.9106C136.107 43.9106 135.316 43.1636 135.316 42.2188V42.2114C135.316 41.2666 136.107 40.5269 137.081 40.5269C138.048 40.5269 138.839 41.2666 138.839 42.2114V42.2188C138.839 43.1636 138.048 43.9106 137.081 43.9106ZM137.081 43.0464C137.55 43.0464 137.931 42.6802 137.931 42.2188V42.2114C137.931 41.7573 137.55 41.3984 137.081 41.3984C136.605 41.3984 136.231 41.7573 136.231 42.2114V42.2188C136.231 42.6802 136.612 43.0464 137.081 43.0464ZM136.026 53.1318C134.503 53.1318 133.397 52.1943 133.397 50.7368V50.7222C133.397 49.2939 134.488 48.459 136.436 48.3418L138.494 48.2173V47.5288C138.494 46.7305 137.974 46.291 136.993 46.291C136.158 46.291 135.616 46.5913 135.433 47.1187L135.426 47.1479H133.704L133.712 47.082C133.888 45.7344 135.177 44.8408 137.081 44.8408C139.139 44.8408 140.296 45.8369 140.296 47.5288V53H138.494V51.9014H138.37C137.931 52.6777 137.081 53.1318 136.026 53.1318ZM135.199 50.6489C135.199 51.3301 135.777 51.7329 136.583 51.7329C137.681 51.7329 138.494 51.0151 138.494 50.063V49.4185L136.693 49.5356C135.675 49.6016 135.199 49.9751 135.199 50.6343V50.6489ZM149.433 53.1611C147.053 53.1611 145.61 51.5645 145.61 49.0156V49.0083C145.61 46.4888 147.067 44.8408 149.345 44.8408C151.623 44.8408 153.029 46.4375 153.029 48.8545V49.4551H147.433C147.455 50.8906 148.232 51.7256 149.47 51.7256C150.458 51.7256 151.022 51.2275 151.198 50.8613L151.22 50.8101H152.956L152.934 50.876C152.678 51.9087 151.608 53.1611 149.433 53.1611ZM149.367 46.269C148.349 46.269 147.587 46.9575 147.448 48.2319H151.249C151.125 46.9209 150.385 46.269 149.367 46.269ZM154.613 53V44.9946H156.437V46.2251H156.561C156.832 45.3682 157.565 44.8628 158.619 44.8628C158.898 44.8628 159.183 44.8994 159.359 44.9507V46.584C159.066 46.5254 158.766 46.4814 158.451 46.4814C157.235 46.4814 156.437 47.2065 156.437 48.3491V53H154.613ZM167.258 53.1318C165.251 53.1318 163.977 51.5425 163.977 49.0083V48.9937C163.977 46.4448 165.229 44.8628 167.258 44.8628C168.356 44.8628 169.272 45.4048 169.689 46.269H169.814V41.8965H171.645V53H169.814V51.7476H169.689C169.25 52.6191 168.386 53.1318 167.258 53.1318ZM167.829 51.5938C169.074 51.5938 169.843 50.6123 169.843 49.0083V48.9937C169.843 47.3896 169.067 46.4009 167.829 46.4009C166.591 46.4009 165.83 47.3823 165.83 48.9937V49.0083C165.83 50.6196 166.584 51.5938 167.829 51.5938ZM177.125 53.1611C174.745 53.1611 173.302 51.5645 173.302 49.0156V49.0083C173.302 46.4888 174.76 44.8408 177.037 44.8408C179.315 44.8408 180.721 46.4375 180.721 48.8545V49.4551H175.126C175.148 50.8906 175.924 51.7256 177.162 51.7256C178.151 51.7256 178.715 51.2275 178.89 50.8613L178.912 50.8101H180.648L180.626 50.876C180.37 51.9087 179.301 53.1611 177.125 53.1611ZM177.059 46.269C176.041 46.269 175.28 46.9575 175.14 48.2319H178.942C178.817 46.9209 178.077 46.269 177.059 46.269ZM185.455 53.0366C183.616 53.0366 182.862 52.4214 182.862 50.876V46.4082H181.617V44.9946H182.862V43.0317H184.715V44.9946H186.407V46.4082H184.715V50.4438C184.715 51.2422 185.03 51.5791 185.792 51.5791C186.048 51.5791 186.187 51.5718 186.407 51.5498V52.9561C186.143 53.0073 185.806 53.0366 185.455 53.0366ZM191.933 53V42.4312H196.151C198.297 42.4312 199.748 43.8447 199.748 45.9614V45.9761C199.748 48.0854 198.297 49.5063 196.151 49.5063H193.822V53H191.933ZM195.69 43.9766H193.822V47.9829H195.69C197.045 47.9829 197.836 47.2505 197.836 45.9834V45.9688C197.836 44.7017 197.045 43.9766 195.69 43.9766ZM204.613 53.1611C202.232 53.1611 200.789 51.5645 200.789 49.0156V49.0083C200.789 46.4888 202.247 44.8408 204.525 44.8408C206.802 44.8408 208.209 46.4375 208.209 48.8545V49.4551H202.613C202.635 50.8906 203.411 51.7256 204.649 51.7256C205.638 51.7256 206.202 51.2275 206.378 50.8613L206.4 50.8101H208.135L208.114 50.876C207.857 51.9087 206.788 53.1611 204.613 53.1611ZM204.547 46.269C203.529 46.269 202.767 46.9575 202.628 48.2319H206.429C206.304 46.9209 205.565 46.269 204.547 46.269ZM209.792 55.6587V44.9946H211.616V46.2471H211.741C212.18 45.3755 213.052 44.8628 214.172 44.8628C216.179 44.8628 217.461 46.4595 217.461 48.9937V49.0083C217.461 51.5571 216.201 53.1318 214.172 53.1318C213.074 53.1318 212.158 52.5898 211.741 51.7256H211.616V55.6587H209.792ZM213.601 51.5938C214.846 51.5938 215.601 50.6123 215.601 49.0083V48.9937C215.601 47.3823 214.846 46.4009 213.601 46.4009C212.363 46.4009 211.594 47.3823 211.594 48.9863V49.001C211.594 50.605 212.363 51.5938 213.601 51.5938ZM219.059 55.6587V44.9946H220.883V46.2471H221.008C221.447 45.3755 222.319 44.8628 223.439 44.8628C225.446 44.8628 226.728 46.4595 226.728 48.9937V49.0083C226.728 51.5571 225.468 53.1318 223.439 53.1318C222.341 53.1318 221.425 52.5898 221.008 51.7256H220.883V55.6587H219.059ZM222.868 51.5938C224.113 51.5938 224.867 50.6123 224.867 49.0083V48.9937C224.867 47.3823 224.113 46.4009 222.868 46.4009C221.63 46.4009 220.861 47.3823 220.861 48.9863V49.001C220.861 50.605 221.63 51.5938 222.868 51.5938ZM231.754 53.1611C229.373 53.1611 227.931 51.5645 227.931 49.0156V49.0083C227.931 46.4888 229.388 44.8408 231.666 44.8408C233.944 44.8408 235.35 46.4375 235.35 48.8545V49.4551H229.754C229.776 50.8906 230.553 51.7256 231.79 51.7256C232.779 51.7256 233.343 51.2275 233.519 50.8613L233.541 50.8101H235.277L235.255 50.876C234.998 51.9087 233.929 53.1611 231.754 53.1611ZM231.688 46.269C230.67 46.269 229.908 46.9575 229.769 48.2319H233.57C233.446 46.9209 232.706 46.269 231.688 46.269ZM239.959 53.1611C237.923 53.1611 236.692 52.2236 236.538 50.8687V50.854H238.347L238.355 50.8687C238.545 51.4253 239.08 51.8135 239.988 51.8135C240.896 51.8135 241.526 51.4033 241.526 50.8027V50.7881C241.526 50.3193 241.175 50.0117 240.296 49.814L238.999 49.521C237.476 49.1841 236.751 48.4663 236.751 47.2871V47.2798C236.751 45.8369 238.069 44.8408 239.959 44.8408C241.907 44.8408 243.071 45.8076 243.189 47.104V47.1187H241.475L241.467 47.0967C241.336 46.5913 240.808 46.1812 239.951 46.1812C239.138 46.1812 238.552 46.5767 238.552 47.1772V47.1846C238.552 47.6533 238.889 47.939 239.754 48.1367L241.05 48.4224C242.617 48.7739 243.357 49.4404 243.357 50.605V50.6196C243.357 52.1431 241.929 53.1611 239.959 53.1611ZM244.992 49.5649V47.9097H249.885V49.5649H244.992ZM252.113 53V42.4312H254.003V46.8257H259.144V42.4312H261.027V53H259.144V48.415H254.003V53H252.113ZM266.639 53.1611C264.258 53.1611 262.815 51.5645 262.815 49.0156V49.0083C262.815 46.4888 264.273 44.8408 266.551 44.8408C268.829 44.8408 270.235 46.4375 270.235 48.8545V49.4551H264.639C264.661 50.8906 265.437 51.7256 266.675 51.7256C267.664 51.7256 268.228 51.2275 268.404 50.8613L268.426 50.8101H270.162L270.14 50.876C269.883 51.9087 268.814 53.1611 266.639 53.1611ZM266.573 46.269C265.555 46.269 264.793 46.9575 264.654 48.2319H268.455C268.33 46.9209 267.591 46.269 266.573 46.269ZM271.892 53V41.8965H273.715V53H271.892ZM279.225 55.8125C277.116 55.8125 275.849 54.9116 275.665 53.564L275.673 53.542H277.496L277.504 53.564C277.628 54.0767 278.236 54.4355 279.254 54.4355C280.499 54.4355 281.225 53.8569 281.225 52.8315V51.3008H281.1C280.639 52.1577 279.767 52.6265 278.661 52.6265C276.632 52.6265 275.372 51.0591 275.372 48.7886V48.7739C275.372 46.4595 276.632 44.8628 278.698 44.8628C279.804 44.8628 280.668 45.4048 281.122 46.313H281.217V44.9946H283.041V52.8022C283.041 54.6479 281.561 55.8125 279.225 55.8125ZM279.225 51.1763C280.492 51.1763 281.254 50.2021 281.254 48.7886V48.7739C281.254 47.3604 280.485 46.3789 279.225 46.3789C277.958 46.3789 277.24 47.3604 277.24 48.7739V48.7886C277.24 50.2021 277.958 51.1763 279.225 51.1763Z" fill="black"/>
<path d="M319.562 26H320.654V21.9502C320.654 20.7505 321.359 20.0205 322.451 20.0205C323.542 20.0205 324.063 20.6045 324.063 21.8359V26H325.155V21.5693C325.155 19.9443 324.298 19.0366 322.762 19.0366C321.714 19.0366 321.048 19.481 320.705 20.2363H320.603V19.1572H319.562V26ZM329.656 26.1206C331.605 26.1206 332.811 24.7749 332.811 22.5786C332.811 20.376 331.605 19.0366 329.656 19.0366C327.707 19.0366 326.501 20.376 326.501 22.5786C326.501 24.7749 327.707 26.1206 329.656 26.1206ZM329.656 25.1367C328.361 25.1367 327.631 24.1973 327.631 22.5786C327.631 20.9536 328.361 20.0205 329.656 20.0205C330.951 20.0205 331.681 20.9536 331.681 22.5786C331.681 24.1973 330.951 25.1367 329.656 25.1367ZM342.568 19.1572H341.47L340.125 24.6289H340.023L338.493 19.1572H337.446L335.916 24.6289H335.814L334.469 19.1572H333.364L335.281 26H336.386L337.909 20.7061H338.011L339.541 26H340.651L342.568 19.1572Z" fill="black" fill-opacity="0.05"/>
<path d="M319.562 26H320.654V21.9502C320.654 20.7505 321.359 20.0205 322.451 20.0205C323.542 20.0205 324.063 20.6045 324.063 21.8359V26H325.155V21.5693C325.155 19.9443 324.298 19.0366 322.762 19.0366C321.714 19.0366 321.048 19.481 320.705 20.2363H320.603V19.1572H319.562V26ZM329.656 26.1206C331.605 26.1206 332.811 24.7749 332.811 22.5786C332.811 20.376 331.605 19.0366 329.656 19.0366C327.707 19.0366 326.501 20.376 326.501 22.5786C326.501 24.7749 327.707 26.1206 329.656 26.1206ZM329.656 25.1367C328.361 25.1367 327.631 24.1973 327.631 22.5786C327.631 20.9536 328.361 20.0205 329.656 20.0205C330.951 20.0205 331.681 20.9536 331.681 22.5786C331.681 24.1973 330.951 25.1367 329.656 25.1367ZM342.568 19.1572H341.47L340.125 24.6289H340.023L338.493 19.1572H337.446L335.916 24.6289H335.814L334.469 19.1572H333.364L335.281 26H336.386L337.909 20.7061H338.011L339.541 26H340.651L342.568 19.1572Z" fill="#3F3F3F" style="mix-blend-mode:color-burn"/>
<path d="M39.377 26.1206C37.8535 26.1206 36.8062 25.3843 36.6792 24.2544H37.8091C37.9932 24.8257 38.5391 25.2002 39.415 25.2002C40.3354 25.2002 40.9893 24.7622 40.9893 24.1401V24.1274C40.9893 23.6641 40.6401 23.3403 39.7959 23.1372L38.7358 22.8833C37.4536 22.5786 36.876 22.02 36.876 21.0361V21.0298C36.876 19.8936 37.9678 19.0366 39.4214 19.0366C40.856 19.0366 41.8525 19.7539 42.0049 20.8711H40.9194C40.7734 20.3315 40.2402 19.957 39.415 19.957C38.6025 19.957 38.0059 20.376 38.0059 20.979V20.9917C38.0059 21.4551 38.3486 21.7471 39.1548 21.9438L40.2085 22.1978C41.4971 22.5088 42.1191 23.0674 42.1191 24.0449V24.0576C42.1191 25.2764 40.9321 26.1206 39.377 26.1206ZM43.5865 26V16.4404H44.691V20.1855H44.7925C45.1353 19.4619 45.7764 19.0366 46.7857 19.0366C48.3218 19.0366 49.1788 19.9443 49.1788 21.5693V26H48.0743V21.8359C48.0743 20.6045 47.5665 20.0142 46.4747 20.0142C45.3829 20.0142 44.691 20.7505 44.691 21.9502V26H43.5865ZM52.7472 26.1206C51.4459 26.1206 50.462 25.3335 50.462 24.0894V24.0767C50.462 22.8579 51.3634 22.1533 52.9567 22.0581L54.9181 21.9375V21.3154C54.9181 20.4712 54.4039 20.0142 53.382 20.0142C52.5631 20.0142 52.0236 20.3188 51.8458 20.8521L51.8395 20.8711H50.735L50.7413 20.833C50.9191 19.7603 51.9601 19.0366 53.42 19.0366C55.0895 19.0366 56.0226 19.8936 56.0226 21.3154V26H54.9181V24.9907H54.8165C54.3849 25.7207 53.6676 26.1206 52.7472 26.1206ZM51.5919 24.064C51.5919 24.7559 52.1822 25.1621 52.9757 25.1621C54.0992 25.1621 54.9181 24.4258 54.9181 23.4482V22.8262L53.09 22.9404C52.0489 23.0039 51.5919 23.3721 51.5919 24.0513V24.064ZM57.7311 26V19.1572H58.8356V20.1729H58.9372C59.1974 19.4556 59.8386 19.0366 60.7653 19.0366C60.9748 19.0366 61.2096 19.062 61.3176 19.0811V20.1538C61.089 20.1157 60.8796 20.0903 60.6384 20.0903C59.5846 20.0903 58.8356 20.7568 58.8356 21.7598V26H57.7311ZM64.9748 26.1206C63.0198 26.1206 61.8391 24.7495 61.8391 22.604V22.5977C61.8391 20.4839 63.0452 19.0366 64.905 19.0366C66.7649 19.0366 67.8948 20.4204 67.8948 22.4644V22.896H62.969C63.0007 24.3115 63.7815 25.1367 65.0002 25.1367C65.927 25.1367 66.4983 24.6987 66.6824 24.2861L66.7078 24.229H67.8122L67.7996 24.2798C67.5647 25.2065 66.5871 26.1206 64.9748 26.1206ZM64.8987 20.0205C63.883 20.0205 63.1086 20.7124 62.988 22.0137H66.7712C66.657 20.6616 65.9079 20.0205 64.8987 20.0205ZM72.3011 26.2158C70.5936 26.2158 69.3748 25.1177 69.2415 23.6514L69.2352 23.5815H70.3333L70.3396 23.6323C70.4476 24.5083 71.241 25.2065 72.3138 25.2065C73.5325 25.2065 74.3704 24.3369 74.3704 23.0991V23.0864C74.3704 21.8677 73.5198 20.998 72.3328 20.998C71.7234 20.998 71.2029 21.1821 70.8094 21.5566C70.6507 21.709 70.5047 21.8867 70.3904 22.1025H69.4002L69.8826 16.8403H74.9798V17.8623H70.784L70.4729 20.96H70.5745C70.9808 20.3442 71.698 20.0078 72.5296 20.0078C74.2498 20.0078 75.4876 21.2964 75.4876 23.0674V23.0801C75.4876 24.9272 74.1609 26.2158 72.3011 26.2158ZM80.0843 26.2158C78.0594 26.2158 76.8534 24.3687 76.8534 21.4233V21.4106C76.8534 18.4653 78.0594 16.6245 80.0843 16.6245C82.1092 16.6245 83.328 18.4653 83.328 21.4106V21.4233C83.328 24.3687 82.1092 26.2158 80.0843 26.2158ZM80.0843 25.2192C81.3983 25.2192 82.1791 23.7593 82.1791 21.4233V21.4106C82.1791 19.0747 81.3983 17.6274 80.0843 17.6274C78.7704 17.6274 78.0023 19.0747 78.0023 21.4106V21.4233C78.0023 23.7593 78.7704 25.2192 80.0843 25.2192Z" fill="black" fill-opacity="0.05"/>
<path d="M39.377 26.1206C37.8535 26.1206 36.8062 25.3843 36.6792 24.2544H37.8091C37.9932 24.8257 38.5391 25.2002 39.415 25.2002C40.3354 25.2002 40.9893 24.7622 40.9893 24.1401V24.1274C40.9893 23.6641 40.6401 23.3403 39.7959 23.1372L38.7358 22.8833C37.4536 22.5786 36.876 22.02 36.876 21.0361V21.0298C36.876 19.8936 37.9678 19.0366 39.4214 19.0366C40.856 19.0366 41.8525 19.7539 42.0049 20.8711H40.9194C40.7734 20.3315 40.2402 19.957 39.415 19.957C38.6025 19.957 38.0059 20.376 38.0059 20.979V20.9917C38.0059 21.4551 38.3486 21.7471 39.1548 21.9438L40.2085 22.1978C41.4971 22.5088 42.1191 23.0674 42.1191 24.0449V24.0576C42.1191 25.2764 40.9321 26.1206 39.377 26.1206ZM43.5865 26V16.4404H44.691V20.1855H44.7925C45.1353 19.4619 45.7764 19.0366 46.7857 19.0366C48.3218 19.0366 49.1788 19.9443 49.1788 21.5693V26H48.0743V21.8359C48.0743 20.6045 47.5665 20.0142 46.4747 20.0142C45.3829 20.0142 44.691 20.7505 44.691 21.9502V26H43.5865ZM52.7472 26.1206C51.4459 26.1206 50.462 25.3335 50.462 24.0894V24.0767C50.462 22.8579 51.3634 22.1533 52.9567 22.0581L54.9181 21.9375V21.3154C54.9181 20.4712 54.4039 20.0142 53.382 20.0142C52.5631 20.0142 52.0236 20.3188 51.8458 20.8521L51.8395 20.8711H50.735L50.7413 20.833C50.9191 19.7603 51.9601 19.0366 53.42 19.0366C55.0895 19.0366 56.0226 19.8936 56.0226 21.3154V26H54.9181V24.9907H54.8165C54.3849 25.7207 53.6676 26.1206 52.7472 26.1206ZM51.5919 24.064C51.5919 24.7559 52.1822 25.1621 52.9757 25.1621C54.0992 25.1621 54.9181 24.4258 54.9181 23.4482V22.8262L53.09 22.9404C52.0489 23.0039 51.5919 23.3721 51.5919 24.0513V24.064ZM57.7311 26V19.1572H58.8356V20.1729H58.9372C59.1974 19.4556 59.8386 19.0366 60.7653 19.0366C60.9748 19.0366 61.2096 19.062 61.3176 19.0811V20.1538C61.089 20.1157 60.8796 20.0903 60.6384 20.0903C59.5846 20.0903 58.8356 20.7568 58.8356 21.7598V26H57.7311ZM64.9748 26.1206C63.0198 26.1206 61.8391 24.7495 61.8391 22.604V22.5977C61.8391 20.4839 63.0452 19.0366 64.905 19.0366C66.7649 19.0366 67.8948 20.4204 67.8948 22.4644V22.896H62.969C63.0007 24.3115 63.7815 25.1367 65.0002 25.1367C65.927 25.1367 66.4983 24.6987 66.6824 24.2861L66.7078 24.229H67.8122L67.7996 24.2798C67.5647 25.2065 66.5871 26.1206 64.9748 26.1206ZM64.8987 20.0205C63.883 20.0205 63.1086 20.7124 62.988 22.0137H66.7712C66.657 20.6616 65.9079 20.0205 64.8987 20.0205ZM72.3011 26.2158C70.5936 26.2158 69.3748 25.1177 69.2415 23.6514L69.2352 23.5815H70.3333L70.3396 23.6323C70.4476 24.5083 71.241 25.2065 72.3138 25.2065C73.5325 25.2065 74.3704 24.3369 74.3704 23.0991V23.0864C74.3704 21.8677 73.5198 20.998 72.3328 20.998C71.7234 20.998 71.2029 21.1821 70.8094 21.5566C70.6507 21.709 70.5047 21.8867 70.3904 22.1025H69.4002L69.8826 16.8403H74.9798V17.8623H70.784L70.4729 20.96H70.5745C70.9808 20.3442 71.698 20.0078 72.5296 20.0078C74.2498 20.0078 75.4876 21.2964 75.4876 23.0674V23.0801C75.4876 24.9272 74.1609 26.2158 72.3011 26.2158ZM80.0843 26.2158C78.0594 26.2158 76.8534 24.3687 76.8534 21.4233V21.4106C76.8534 18.4653 78.0594 16.6245 80.0843 16.6245C82.1092 16.6245 83.328 18.4653 83.328 21.4106V21.4233C83.328 24.3687 82.1092 26.2158 80.0843 26.2158ZM80.0843 25.2192C81.3983 25.2192 82.1791 23.7593 82.1791 21.4233V21.4106C82.1791 19.0747 81.3983 17.6274 80.0843 17.6274C78.7704 17.6274 78.0023 19.0747 78.0023 21.4106V21.4233C78.0023 23.7593 78.7704 25.2192 80.0843 25.2192Z" fill="#3F3F3F" style="mix-blend-mode:color-burn"/>
</g>
<g filter="url(#filter1_d_2303_4629)">
<path fill-rule="evenodd" clip-rule="evenodd" d="M23.0272 10C25.0353 10 26.0389 10 27.1196 10.3417C28.2996 10.771 29.229 11.7007 29.6587 12.8803C30 13.961 30 14.965 30 16.973V23.027C30 25.035 30 26.0387 29.6587 27.1197C29.229 28.2993 28.2996 29.2287 27.1196 29.6583C26.0389 30 25.0353 30 23.0272 30H16.9728C14.9651 30 13.9611 30 12.8804 29.6583C11.7004 29.2287 10.771 28.2993 10.3413 27.1197C10 26.0387 10 25.035 10 23.027V16.973C10 14.965 10 13.961 10.3413 12.8803C10.771 11.7007 11.7004 10.771 12.8804 10.3417C13.9611 10 14.9651 10 16.9728 10H23.0272Z" fill="black" fill-opacity="0.01"/>
</g>
<mask id="mask0_2303_4629" style="mask-type:luminance" maskUnits="userSpaceOnUse" x="10" y="10" width="20" height="20">
<path fill-rule="evenodd" clip-rule="evenodd" d="M23.0272 10C25.0353 10 26.0389 10 27.1196 10.3417C28.2996 10.771 29.229 11.7007 29.6587 12.8803C30 13.961 30 14.965 30 16.973V23.027C30 25.035 30 26.0387 29.6587 27.1197C29.229 28.2993 28.2996 29.2287 27.1196 29.6583C26.0389 30 25.0353 30 23.0272 30H16.9728C14.9651 30 13.9611 30 12.8804 29.6583C11.7004 29.2287 10.771 28.2993 10.3413 27.1197C10 26.0387 10 25.035 10 23.027V16.973C10 14.965 10 13.961 10.3413 12.8803C10.771 11.7007 11.7004 10.771 12.8804 10.3417C13.9611 10 14.9651 10 16.9728 10H23.0272Z" fill="white"/>
</mask>
<g mask="url(#mask0_2303_4629)">
<rect width="20" height="20" transform="translate(10 10)" fill="#2CA3E8"/>
<g filter="url(#filter2_d_2303_4629)">
<path d="M24.713 22.4367C25.2474 21.4291 25.4433 20.2761 25.2714 19.1485C25.0722 17.8395 24.3942 16.6511 23.3688 15.8136C22.3434 14.9762 21.0436 14.5495 19.7214 14.6162C18.3993 14.6828 17.149 15.2381 16.2131 16.1744C15.277 17.1105 14.7218 18.3612 14.6552 19.6835C14.5886 21.0059 15.0152 22.306 15.8524 23.3316C16.6896 24.3573 17.8778 25.0354 19.1866 25.2347C19.4519 25.2731 19.7197 25.2926 19.9878 25.293C20.853 25.2935 21.7051 25.0816 22.4693 24.6761L23.9018 25.0598V25.0598C24.0672 25.1046 24.2414 25.1047 24.4069 25.0604C24.5724 25.016 24.7231 24.9287 24.8439 24.8072C25.0894 24.5622 25.1856 24.205 25.0965 23.8698L24.713 22.4367ZM17.8024 20.6784C17.6093 20.6784 17.424 20.6017 17.2873 20.4651C17.1507 20.3284 17.074 20.143 17.074 19.9498C17.074 19.7566 17.1507 19.5713 17.2873 19.4346C17.424 19.298 17.6093 19.2212 17.8024 19.2212C17.9956 19.2212 18.1809 19.298 18.3175 19.4346C18.4541 19.5713 18.5309 19.7566 18.5309 19.9498C18.5309 20.143 18.4541 20.3284 18.3175 20.4651C18.1809 20.6017 17.9956 20.6784 17.8024 20.6784ZM19.9877 20.6784C19.7946 20.6784 19.6093 20.6017 19.4726 20.4651C19.336 20.3284 19.2593 20.143 19.2593 19.9498C19.2593 19.7566 19.336 19.5713 19.4726 19.4346C19.6093 19.298 19.7946 19.2212 19.9877 19.2212C20.1809 19.2212 20.3662 19.298 20.5028 19.4346C20.6394 19.5713 20.7162 19.7566 20.7162 19.9498C20.7162 20.143 20.6394 20.3284 20.5028 20.4651C20.3662 20.6017 20.1809 20.6784 19.9877 20.6784ZM22.173 20.6784C21.9799 20.6784 21.7946 20.6017 21.6579 20.4651C21.5213 20.3284 21.4446 20.143 21.4446 19.9498C21.4446 19.7566 21.5213 19.5713 21.6579 19.4346C21.7946 19.298 21.9799 19.2212 22.173 19.2212C22.3662 19.2212 22.5515 19.298 22.6881 19.4346C22.8247 19.5713 22.9015 19.7566 22.9015 19.9498C22.9015 20.143 22.8247 20.3284 22.6881 20.4651C22.5515 20.6017 22.3662 20.6784 22.173 20.6784Z" fill="url(#paint0_linear_2303_4629)"/>
</g>
<g opacity="0.4">
<mask id="mask1_2303_4629" style="mask-type:luminance" maskUnits="userSpaceOnUse" x="10" y="10" width="20" height="20">
<rect x="10" y="10" width="20" height="20" fill="white"/>
</mask>
<g mask="url(#mask1_2303_4629)">
<path opacity="0.5" fill-rule="evenodd" clip-rule="evenodd" d="M23.7922 27.7452C24.6371 27.3299 25.4044 26.7809 26.0664 26.1252L28.5667 28.6256H23.7922V27.7452ZM20.0422 28.6256V28.6246C21.3536 28.6182 22.5967 28.3182 23.7089 27.7862V28.6256H20.0422ZM16.2922 28.6256V27.7862C17.4044 28.3182 18.6476 28.6182 19.9589 28.6246V28.6256H16.2922ZM11.4346 28.6256L13.9348 26.1252C14.5967 26.7809 15.3642 27.3299 16.2089 27.7452V28.6256H11.4346ZM12.2559 23.7922C12.6712 24.6371 13.2202 25.4044 13.8759 26.0664L11.3756 28.5667V23.7922H12.2559ZM11.3756 20.0422H11.3766C11.3829 21.3537 11.6829 22.5967 12.2149 23.7089H11.3756V20.0422ZM11.3756 16.2922H12.2149C11.6829 17.4044 11.3829 18.6476 11.3766 19.9589H11.3756V16.2922ZM11.3756 11.4346L13.8759 13.9347C13.2202 14.5967 12.6712 15.3642 12.2559 16.2089H11.3756V11.4346ZM16.2089 12.2559C15.3642 12.6712 14.5967 13.2202 13.9348 13.8759L11.4346 11.3756H16.2089V12.2559ZM19.9589 11.3756V11.3766C18.6476 11.3829 17.4044 11.6831 16.2922 12.2149V11.3756H19.9589ZM23.7089 11.3756V12.2149C22.5967 11.6831 21.3536 11.3829 20.0422 11.3766V11.3756H23.7089ZM28.5667 11.3756L26.0664 13.8759C25.4044 13.2202 24.6371 12.6712 23.7922 12.2559V11.3756H28.5667ZM27.7452 16.2089C27.3301 15.3642 26.7811 14.5967 26.1254 13.9347L28.6256 11.4346V16.2089H27.7452ZM28.6256 19.9589H28.6246C28.6184 18.6476 28.3183 17.4044 27.7864 16.2922H28.6256V19.9589ZM28.6256 23.7089H27.7864C28.3183 22.5967 28.6184 21.3537 28.6246 20.0422H28.6256V23.7089ZM23.8513 23.7922H27.6516C27.2428 24.6142 26.7061 25.3616 26.0664 26.0074L23.8513 23.7922ZM23.7922 23.8511L26.0076 26.0664C25.3616 26.7061 24.6142 27.2426 23.7922 27.6516V23.8511ZM20.0422 25.3746C21.4627 25.3636 22.7529 24.7987 23.7089 23.8859V27.6944C22.5986 28.2317 21.3549 28.5349 20.0422 28.5412V25.3746ZM16.2922 23.8859C17.2482 24.7987 18.5384 25.3636 19.9589 25.3746V28.5412C18.6462 28.5349 17.4026 28.2317 16.2922 27.6944V23.8859ZM16.2089 23.8512V27.6516C15.3871 27.2426 14.6396 26.7061 13.9937 26.0664L16.2089 23.8512ZM16.1501 23.7922L13.9347 26.0074C13.2951 25.3616 12.7586 24.6142 12.3496 23.7922H16.1501ZM14.6266 20.0422C14.6376 21.4627 15.2024 22.7529 16.1152 23.7089H12.3067C11.7694 22.5986 11.4662 21.3549 11.4599 20.0422H14.6266ZM16.1152 16.2922C15.2024 17.2482 14.6376 18.5384 14.6266 19.9589H11.4599C11.4662 18.6462 11.7694 17.4026 12.3069 16.2922H16.1152ZM16.1501 16.2089H12.3496C12.7586 15.3871 13.2951 14.6396 13.9347 13.9937L16.1501 16.2089ZM16.2089 16.1499L13.9937 13.9347C14.6396 13.2951 15.3871 12.7586 16.2089 12.3496V16.1499ZM19.9589 14.6266C18.5384 14.6376 17.2482 15.2024 16.2922 16.1152V12.3069C17.4026 11.7694 18.6462 11.4662 19.9589 11.4599V14.6266ZM23.7089 16.1152C22.7529 15.2024 21.4627 14.6376 20.0422 14.6266V11.4599C21.3549 11.4662 22.5986 11.7694 23.7089 12.3069V16.1152ZM23.7922 16.1501V12.3496C24.6142 12.7586 25.3616 13.2951 26.0076 13.9347L23.7922 16.1501ZM23.8513 16.2089L26.0664 13.9937C26.7061 14.6396 27.2426 15.3871 27.6516 16.2089H23.8513ZM25.3746 19.9589C25.3638 18.5384 24.7988 17.2482 23.8859 16.2922H27.6944C28.2318 17.4026 28.5349 18.6462 28.5413 19.9589H25.3746ZM25.3746 20.0422H28.5413C28.5349 21.3549 28.2318 22.5986 27.6944 23.7089H23.8859C24.7988 22.7529 25.3638 21.4627 25.3746 20.0422V20.0422ZM20.0422 23.7922H23.6864C22.7421 24.7106 21.4577 25.2802 20.0422 25.2912V23.7922ZM19.9589 23.7922V25.2912C18.5434 25.2802 17.2591 24.7106 16.3147 23.7922H19.9589ZM16.2089 20.0422V23.6864C15.2907 22.7421 14.7211 21.4577 14.7099 20.0422H16.2089ZM16.2089 19.9589H14.7099C14.7211 18.5434 15.2907 17.2591 16.2089 16.3147V19.9589ZM19.9589 16.2089H16.3147C17.2591 15.2907 18.5434 14.7211 19.9589 14.7099V16.2089ZM20.0422 16.2089V14.7099C21.4577 14.7211 22.7421 15.2907 23.6864 16.2089H20.0422ZM23.7922 19.9589V16.3147C24.7106 17.2591 25.2802 18.5434 25.2912 19.9589H23.7922ZM23.7922 20.0422H25.2912C25.2802 21.4577 24.7106 22.7421 23.7922 23.6866V20.0422ZM20.0422 20.1011L23.6501 23.7089H20.0422V20.1011ZM19.9589 20.1012V23.7089H16.3513L19.9589 20.1012ZM19.9001 20.0422L16.2922 23.6501V20.0422H19.9001ZM19.9001 19.9589H16.2922V16.3511L19.9001 19.9589ZM19.9589 19.8999L16.3513 16.2922H19.9589V19.8999ZM20.0422 19.9001V16.2922H23.6501L20.0422 19.9001ZM23.7089 20.0422V23.6499L20.1013 20.0422H23.7089ZM20.1013 19.9589L23.7089 16.3512V19.9589H20.1013ZM28.6256 28.5667L26.1254 26.0664C26.7811 25.4044 27.3301 24.6371 27.7452 23.7922H28.6256V28.5667ZM30.2847 30.2255L28.8263 28.7672H30.1007V28.6838H28.7673V23.8505H30.1007V23.7672H28.7673V20.1005H30.1007V20.0172H28.7673V16.3505H30.1007V16.2672H28.7673V11.4338H30.1007V11.3505H28.8263L30.118 10.0588L30.059 10L28.7673 11.2917V10.0172H28.684V11.3505H23.8507V10.0172H23.7673V11.3505H20.1007V10.0172H20.0173V11.3505H16.3507V10.0172H16.2673V11.3505H11.434V10.0172H11.3507V11.2917L10.059 10L10 10.0588L11.2918 11.3505H10.0173V11.4338H11.3507V16.2672H10.0173V16.3505H11.3507V20.0172H10.0173V20.1005H11.3507V23.7672H10.0173V23.8505H11.3507V28.6838H10.0173V28.7672H11.2918L10 30.0588L10.059 30.1178L11.3507 28.8262V30.1005H11.434V28.7672H16.2673V30.1005H16.3507V28.7672H20.0173V30.1005H20.1007V28.7672H23.7673V30.1005H23.8507V28.7672H28.684V30.1005H28.7673V28.8262L30.2257 30.2845L30.2847 30.2255Z" fill="white"/>
</g>
</g>
<path d="M25.8857 8.22266H14.1143C10.882 8.22266 8.26172 10.8429 8.26172 14.0752V25.8466C8.26172 29.0789 10.882 31.6992 14.1143 31.6992H25.8857C29.118 31.6992 31.7383 29.0789 31.7383 25.8466V14.0752C31.7383 10.8429 29.118 8.22266 25.8857 8.22266Z" fill="#BC3028"/>
<path d="M25.0126 9.95508H14.9814C12.2269 9.95508 9.99402 12.188 9.99402 14.9424V24.9736C9.99402 27.7281 12.2269 29.961 14.9814 29.961H25.0126C27.767 29.961 29.9999 27.7281 29.9999 24.9736V14.9424C29.9999 12.188 27.767 9.95508 25.0126 9.95508Z" fill="#BC3028"/>
<path d="M25.0126 9.95508H14.9814C12.2269 9.95508 9.99402 12.188 9.99402 14.9424V24.9736C9.99402 27.7281 12.2269 29.961 14.9814 29.961H25.0126C27.767 29.961 29.9999 27.7281 29.9999 24.9736V14.9424C29.9999 12.188 27.767 9.95508 25.0126 9.95508Z" fill="#BC3028"/>
<path d="M20.4256 23.769H19.561V23.7692H20.4256V23.769Z" fill="white"/>
<path d="M14.2454 21.321L14.1756 21.3871C14.1655 21.3966 14.1552 21.4049 14.1439 21.4121C14.1771 21.381 14.2111 21.3505 14.2454 21.321Z" fill="white"/>
<path d="M23.4548 27.5491C23.4495 27.573 23.4453 27.5974 23.4423 27.6222C23.4449 27.5974 23.4491 27.5731 23.4548 27.5491Z" fill="white"/>
<path d="M19.561 23.769V23.7692H20.4256V23.769H19.561Z" fill="white"/>
<path d="M14.9974 16.5206C14.3436 16.5206 13.9186 16.1003 13.9186 15.4978H14.3202C14.3202 15.9041 14.6238 16.1563 15.0161 16.1563C15.4224 16.1563 15.6746 15.9228 15.6746 15.5445C15.6746 15.2363 15.4084 15.0822 15.0581 14.9654L14.7359 14.858C14.2875 14.7085 13.984 14.433 13.984 13.9893C13.984 13.4709 14.4136 13.1206 14.9834 13.1206C15.6279 13.1206 15.9969 13.4989 15.9969 14.022H15.5999C15.5999 13.7044 15.3477 13.4756 14.9834 13.4756C14.6145 13.4756 14.3856 13.6997 14.3856 13.9426C14.3856 14.1854 14.5397 14.3769 14.918 14.5077L15.3617 14.6618C15.8007 14.8159 16.0763 15.0868 16.0763 15.5165C16.0763 16.0583 15.6886 16.5206 14.9974 16.5206ZM17.0635 16.4552H16.6805V13.186H17.0635V14.4563C17.1709 14.2695 17.4371 14.0827 17.8014 14.0827C18.2965 14.0827 18.6141 14.447 18.6141 14.9794V16.4552H18.2311V15.0261C18.2311 14.6385 17.9742 14.419 17.652 14.419C17.3297 14.419 17.0635 14.6385 17.0635 15.0261V16.4552ZM20.3297 16.5206C19.6712 16.5206 19.1714 15.9929 19.1714 15.3017C19.1714 14.6105 19.7085 14.0827 20.339 14.0827C20.7453 14.0827 21.0396 14.2555 21.2077 14.4844V14.1481H21.5626V16.4552H21.2077V16.0583C21.0396 16.3198 20.7453 16.5206 20.3297 16.5206ZM20.381 16.175C20.8154 16.175 21.2077 15.8341 21.2077 15.3017C21.2077 14.7692 20.8154 14.4283 20.381 14.4283C19.928 14.4283 19.5544 14.7692 19.5544 15.3017C19.5544 15.8341 19.928 16.175 20.381 16.175ZM23.0704 14.1481H23.4954V14.503H23.033C22.7902 14.503 22.6734 14.6245 22.6734 14.8673V16.4552H22.2904V14.1481H22.6454V14.475C22.6968 14.2462 22.8602 14.1481 23.0704 14.1481ZM26.0756 15.2409V15.3624H24.1654C24.1701 15.8808 24.5157 16.1844 24.9454 16.1844C25.3284 16.1844 25.5759 15.9742 25.6693 15.694H26.0336C25.8981 16.175 25.5105 16.5206 24.9454 16.5206C24.2588 16.5206 23.7825 16.0116 23.7825 15.3017C23.7825 14.5918 24.2869 14.0827 24.9407 14.0827C25.6273 14.0827 26.0756 14.5311 26.0756 15.2409ZM24.936 14.4096C24.5624 14.4096 24.2729 14.6478 24.1888 15.0541H25.702C25.6506 14.6525 25.361 14.4096 24.936 14.4096Z" fill="white"/>
<g filter="url(#filter3_d_2303_4629)">
<path d="M27.0312 23.4396V23.4397C27.0311 25.4915 25.3677 27.155 23.316 27.155C21.9694 27.155 20.7901 26.4387 20.1385 25.3665C20.2697 24.8697 20.3482 24.3717 20.2992 23.9698C20.0728 23.9697 19.7972 23.9699 19.6381 23.9701C19.6132 23.7968 19.6003 23.6197 19.6003 23.4396H19.6006V23.4397H20.3867C20.3867 24.222 20.6913 24.9574 21.245 25.5106C21.7979 26.0639 22.5334 26.3686 23.316 26.3686C24.0985 26.3686 24.8337 26.0639 25.3868 25.5106C25.94 24.9574 26.2448 24.222 26.2448 23.4397H20.3867V23.4396H19.6006C19.6006 23.2587 19.6136 23.0808 19.6387 22.9066C19.798 22.9067 20.073 22.907 20.2992 22.9069C20.3481 22.5055 20.2699 22.0084 20.139 21.5122C20.7906 20.4402 21.9696 19.7241 23.316 19.7241C25.368 19.7241 27.0311 21.3876 27.0312 23.4396Z" fill="white"/>
</g>
<g filter="url(#filter4_d_2303_4629)">
<path d="M26.0065 17.2771V17.6176C26.0065 17.7407 25.9067 17.8406 25.7836 17.8406H14.7671V20.2487C15.3241 19.9155 15.9754 19.7242 16.6714 19.7242C18.1246 19.7242 19.383 20.5588 19.9938 21.7746C20.2451 22.2753 20.3866 22.8407 20.3866 23.4394V23.4397C20.3866 24.0384 20.2451 24.6042 19.9934 25.1048C19.383 26.3207 18.1246 27.155 16.6713 27.155C14.6983 27.155 13.0847 25.6173 12.9633 23.6749C12.9554 23.5471 13.058 23.4394 13.186 23.4394H19.6002C19.6002 22.6573 19.2957 21.9216 18.7423 21.3686C18.1891 20.8151 17.4535 20.5106 16.6714 20.5106C15.9651 20.5106 15.2972 20.7585 14.7671 21.2136C14.7359 21.2403 14.705 21.2682 14.6748 21.2964C14.5899 21.3547 14.4738 21.3467 14.397 21.2742L14.3964 21.2737L14.0499 20.9435C14.0056 20.9014 13.9807 20.843 13.9807 20.782V17.2728C13.9807 17.2712 13.9807 17.2698 13.9808 17.2684C13.981 17.2656 13.9811 17.2628 13.9814 17.2599C13.9816 17.2571 13.9819 17.2543 13.9821 17.2515C13.9832 17.2431 13.9846 17.2349 13.9864 17.2268C13.9884 17.2177 13.991 17.2089 13.9943 17.2003C13.9952 17.1977 13.9963 17.1951 13.9974 17.1926C13.9977 17.1914 13.998 17.1904 13.9987 17.1893C13.9997 17.1867 14.001 17.1841 14.0023 17.1814C14.0043 17.1768 14.0068 17.1721 14.0095 17.1677C14.0123 17.1625 14.0154 17.1574 14.0187 17.1525C14.0199 17.1507 14.0211 17.149 14.0223 17.1474C14.0241 17.1447 14.0262 17.1421 14.0282 17.1395C14.0301 17.137 14.0322 17.1344 14.0344 17.132C14.0357 17.1304 14.0369 17.129 14.0383 17.1275C14.0431 17.1221 14.0482 17.117 14.0536 17.1121C14.0589 17.1073 14.0644 17.1027 14.0702 17.0985C14.0758 17.0942 14.0819 17.0901 14.0879 17.0864C14.094 17.0827 14.1003 17.0794 14.1069 17.0761C14.1147 17.0724 14.1228 17.0691 14.1311 17.0663C14.134 17.0652 14.1369 17.0642 14.1399 17.0634C14.1428 17.0625 14.1456 17.0618 14.1486 17.0611C14.1512 17.0604 14.1539 17.0597 14.1565 17.0592C14.1583 17.0587 14.1601 17.0584 14.1619 17.0582C14.164 17.0577 14.1659 17.0573 14.168 17.057C14.1694 17.0568 14.1708 17.0566 14.1722 17.0564C14.1748 17.056 14.1775 17.0557 14.18 17.0555C14.1835 17.0551 14.187 17.0547 14.1906 17.0546C14.1949 17.0543 14.1992 17.0542 14.2035 17.0542H25.7836C25.9067 17.0542 26.0065 17.154 26.0065 17.2771Z" fill="white"/>
</g>
<mask id="mask2_2303_4629" style="mask-type:luminance" maskUnits="userSpaceOnUse" x="9" y="9" width="22" height="22">
<mask id="mask3_2303_4629" style="mask-type:luminance" maskUnits="userSpaceOnUse" x="9" y="9" width="22" height="22">
<mask id="mask4_2303_4629" style="mask-type:luminance" maskUnits="userSpaceOnUse" x="9" y="9" width="22" height="22">
<path d="M25.1749 9.62305H14.8108C11.9649 9.62305 9.65784 11.9301 9.65784 14.776V25.1401C9.65784 27.986 11.9649 30.293 14.8108 30.293H25.1749C28.0208 30.293 30.3278 27.986 30.3278 25.1401V14.776C30.3278 11.9301 28.0208 9.62305 25.1749 9.62305Z" fill="white"/>
</mask>
<g mask="url(#mask4_2303_4629)">
<path d="M25.1749 9.62305H14.8108C11.9649 9.62305 9.65784 11.9301 9.65784 14.776V25.1401C9.65784 27.986 11.9649 30.293 14.8108 30.293H25.1749C28.0208 30.293 30.3278 27.986 30.3278 25.1401V14.776C30.3278 11.9301 28.0208 9.62305 25.1749 9.62305Z" fill="white"/>
</g>
</mask>
<g mask="url(#mask3_2303_4629)">
<path d="M25.1748 9.62329H14.8106C11.9648 9.62329 9.65771 11.9303 9.65771 14.7762V25.1404C9.65771 27.9862 11.9648 30.2933 14.8106 30.2933H25.1748C28.0207 30.2933 30.3277 27.9862 30.3277 25.1404V14.7762C30.3277 11.9303 28.0207 9.62329 25.1748 9.62329Z" fill="white"/>
</g>
</mask>
<g mask="url(#mask2_2303_4629)">
<path d="M27.225 9.62329H12.7683C11.0525 9.62329 9.66162 11.0142 9.66162 12.7299V27.1866C9.66162 28.9024 11.0525 30.2933 12.7683 30.2933H27.225C28.9407 30.2933 30.3316 28.9024 30.3316 27.1866V12.7299C30.3316 11.0142 28.9407 9.62329 27.225 9.62329Z" fill="#E63612"/>
<path d="M13.6561 30.2933L13.6789 30.2624L26.9812 9.62329H18.4697L9.66162 23.2892V27.1867C9.66162 28.9024 11.0525 30.2933 12.7683 30.2933L13.6561 30.2933Z" fill="#CC1517"/>
<path d="M30.3317 12.73C30.3317 11.9533 30.0447 11.2449 29.5735 10.7002L16.9452 30.2934H25.4539L25.4767 30.2625L30.3317 22.7298V12.73Z" fill="#CC1517"/>
<path d="M14.6113 16.8621L14.4957 22.2964L16.6268 22.3542C16.6364 21.9303 16.769 21.7183 17.0247 21.7183C17.3042 21.7183 17.4443 21.8411 17.4443 22.0868V25.5339C17.4443 25.7604 17.3188 25.8736 17.0683 25.8736C16.8129 25.8736 16.6853 25.7604 16.6853 25.5339V22.8745H14.4669V25.4544C14.4669 26.6974 15.3342 27.3189 17.0683 27.3189C17.844 27.3189 18.4704 27.1552 18.9472 26.8275C19.4242 26.4999 19.6626 26.0374 19.6626 25.44V21.7617C19.6626 20.7355 19.0656 20.2224 17.8713 20.2224C17.3079 20.2224 16.9131 20.3357 16.6868 20.5621L16.7826 18.4302H19.3661L19.7204 16.8621L14.6113 16.8621Z" fill="white"/>
<path d="M23.3334 25.8735C23.0734 25.8735 22.9432 25.77 22.9432 25.5628V18.5024C22.9432 18.2954 23.0734 18.1917 23.3334 18.1917C23.5792 18.1917 23.7019 18.2954 23.7019 18.5024V25.5628C23.7019 25.77 23.5792 25.8735 23.3334 25.8735ZM21.4004 26.8346C21.8892 27.1575 22.5336 27.3188 23.3334 27.3188C24.1091 27.3188 24.7439 27.1551 25.2376 26.8274C25.7314 26.4999 25.9784 26.0374 25.9784 25.4399V18.7698C25.9784 17.4354 25.1016 16.7681 23.3479 16.7681C21.5603 16.7681 20.6667 17.4401 20.6667 18.7843V25.4544C20.6667 26.0518 20.9113 26.5119 21.4004 26.8346Z" fill="white"/>
<path d="M16.5442 14.7999C16.4362 14.6889 16.2826 14.6106 16.0835 14.5649C16.018 14.5498 15.9363 14.533 15.8383 14.5148C15.7402 14.4965 15.6516 14.4783 15.5726 14.46C15.4296 14.4266 15.3262 14.3833 15.2624 14.33C15.197 14.2768 15.1643 14.1977 15.1643 14.0928C15.1643 13.9742 15.2182 13.8849 15.3262 13.8248C15.4342 13.7648 15.5665 13.7347 15.7231 13.7347C15.8736 13.7347 16.0272 13.7625 16.1838 13.818C16.3404 13.8735 16.4735 13.9415 16.583 14.0221H16.6057V13.5637C16.5023 13.5105 16.3727 13.4652 16.2169 13.428C16.061 13.3907 15.907 13.3721 15.755 13.3721C15.5923 13.3721 15.4452 13.393 15.3137 13.4348C15.1821 13.4766 15.0738 13.5333 14.9887 13.6047C14.9004 13.6777 14.8347 13.7606 14.7914 13.8533C14.748 13.9461 14.7264 14.0449 14.7264 14.1498C14.7264 14.3171 14.7731 14.4581 14.8667 14.5729C14.9602 14.6877 15.1187 14.7748 15.3422 14.8341C15.4228 14.8554 15.5121 14.8751 15.6102 14.8934C15.7082 14.9116 15.7877 14.9276 15.8485 14.9413C16.0127 14.9778 16.1237 15.0219 16.1815 15.0735C16.2393 15.1253 16.2682 15.2013 16.2682 15.3016C16.2682 15.4324 16.215 15.5282 16.1085 15.589C16.0021 15.6498 15.8546 15.6802 15.6661 15.6802C15.514 15.6802 15.3551 15.6502 15.1894 15.5901C15.0236 15.5301 14.8731 15.4491 14.7378 15.3472H14.715V15.8285C14.8214 15.8817 14.9533 15.9308 15.1107 15.9756C15.2681 16.0204 15.441 16.0429 15.6296 16.0429C15.9625 16.0429 16.2252 15.9684 16.4176 15.8194C16.6099 15.6704 16.7061 15.4795 16.7061 15.2469C16.7061 15.0614 16.6521 14.9124 16.5442 14.7999Z" fill="white"/>
<path d="M19.0575 14.3277C19.0575 14.016 18.9853 13.7773 18.8408 13.6115C18.6963 13.4458 18.4865 13.3629 18.2113 13.3629C18.0608 13.3629 17.914 13.3941 17.7711 13.4564C17.6282 13.5188 17.4898 13.6055 17.356 13.7165V12.4324H16.9272V15.9813H17.356V14.0791C17.4731 13.9894 17.5955 13.9157 17.7232 13.8579C17.8509 13.8001 17.9733 13.7712 18.0904 13.7712C18.2045 13.7712 18.2972 13.7868 18.3687 13.818C18.4402 13.8491 18.4949 13.8966 18.5329 13.9605C18.5694 14.0183 18.5945 14.0985 18.6082 14.2011C18.6218 14.3038 18.6287 14.4136 18.6287 14.5307V15.9813H19.0575V14.3277Z" fill="white"/>
<path d="M20.7021 15.5651C20.5774 15.6236 20.4398 15.6529 20.2893 15.6529C20.1083 15.6529 19.9737 15.616 19.8856 15.5422C19.7974 15.4685 19.7533 15.3586 19.7533 15.2127C19.7533 15.0835 19.7913 14.982 19.8673 14.9082C19.9433 14.8345 20.0429 14.7801 20.1661 14.7451C20.2695 14.7162 20.4097 14.6942 20.5869 14.679C20.764 14.6638 20.918 14.6524 21.0488 14.6448V15.3541C20.9423 15.4362 20.8268 15.5065 20.7021 15.5651ZM21.4753 14.2525C21.4753 14.0882 21.4502 13.9506 21.4 13.8396C21.3499 13.7287 21.2769 13.6382 21.181 13.5682C21.0837 13.4968 20.9685 13.4462 20.8355 13.4165C20.7024 13.3869 20.5462 13.3721 20.3668 13.3721C20.2132 13.3721 20.0574 13.3858 19.8993 13.4131C19.7411 13.4405 19.6202 13.4656 19.5366 13.4884V13.924H19.5594C19.7069 13.8678 19.8498 13.8248 19.9882 13.7952C20.1265 13.7655 20.252 13.7507 20.3646 13.7507C20.4573 13.7507 20.5462 13.7568 20.6314 13.7689C20.7165 13.7811 20.7895 13.8047 20.8504 13.8396C20.9142 13.8761 20.9633 13.9263 20.9975 13.9902C21.0317 14.054 21.0488 14.1346 21.0488 14.2319V14.2981C20.7994 14.3103 20.566 14.3285 20.3486 14.3528C20.1311 14.3772 19.9449 14.4235 19.7898 14.4919C19.6362 14.5604 19.518 14.6543 19.4351 14.7736C19.3522 14.893 19.3108 15.0492 19.3108 15.2423C19.3108 15.478 19.3906 15.6719 19.5503 15.8239C19.7099 15.976 19.9045 16.052 20.1342 16.052C20.2588 16.052 20.3676 16.0402 20.4603 16.0167C20.5531 15.9931 20.6352 15.9638 20.7067 15.9288C20.7675 15.9015 20.8302 15.8646 20.8948 15.8182C20.9594 15.7719 21.0108 15.7358 21.0488 15.7099V15.9813H21.4753V14.2525Z" fill="white"/>
<path d="M23.4935 13.461C23.4266 13.4503 23.3764 13.4431 23.343 13.4393C23.3095 13.4355 23.2555 13.4336 23.181 13.4336C23.0457 13.4336 22.913 13.4621 22.783 13.5191C22.653 13.5761 22.5029 13.6731 22.3326 13.8099V13.4336H21.9038V15.9812H22.3326V14.1726C22.4466 14.0798 22.5652 14.0042 22.6884 13.9456C22.8115 13.8871 22.9393 13.8578 23.0716 13.8578C23.1537 13.8578 23.2247 13.8612 23.2848 13.8681C23.3449 13.8749 23.4068 13.886 23.4707 13.9012H23.4935L23.4935 13.461Z" fill="white"/>
<path d="M24.1013 14.4236C24.1195 14.2229 24.1967 14.0549 24.3328 13.9195C24.4689 13.7842 24.6517 13.7166 24.8813 13.7166C25.1094 13.7166 25.2793 13.7781 25.3911 13.9013C25.5028 14.0245 25.5595 14.1986 25.561 14.4236L24.1013 14.4236ZM25.9784 14.5194C25.9784 14.1499 25.8852 13.8648 25.699 13.6641C25.5127 13.4634 25.2477 13.363 24.9041 13.363C24.5331 13.363 24.2339 13.4855 24.0066 13.7302C23.7793 13.9751 23.6656 14.3058 23.6656 14.7224C23.6656 15.1436 23.7842 15.4686 24.0215 15.6974C24.2587 15.9263 24.5886 16.0407 25.0113 16.0407C25.177 16.0407 25.3352 16.0202 25.4857 15.9791C25.6363 15.9381 25.7837 15.8871 25.9282 15.8263V15.3587H25.9054C25.8309 15.4257 25.7058 15.4937 25.5302 15.5629C25.3546 15.6321 25.1801 15.6666 25.0068 15.6666C24.876 15.6666 24.7562 15.6484 24.6475 15.6119C24.5388 15.5754 24.4449 15.5207 24.3659 15.4477C24.2837 15.3732 24.2191 15.2778 24.172 15.1614C24.1248 15.0451 24.1013 14.9087 24.1013 14.752H25.9784L25.9784 14.5194Z" fill="white"/>
</g>
</g>
<defs>
<filter id="filter0_b_2303_4629" x="-54.3656" y="-54.3656" width="467.731" height="213.731" filterUnits="userSpaceOnUse" color-interpolation-filters="sRGB">
<feFlood flood-opacity="0" result="BackgroundImageFix"/>
<feGaussianBlur in="BackgroundImageFix" stdDeviation="27.1828"/>
<feComposite in2="SourceAlpha" operator="in" result="effect1_backgroundBlur_2303_4629"/>
<feBlend mode="normal" in="SourceGraphic" in2="effect1_backgroundBlur_2303_4629" result="shape"/>
</filter>
<filter id="filter1_d_2303_4629" x="10" y="10" width="20" height="20" filterUnits="userSpaceOnUse" color-interpolation-filters="sRGB">
<feFlood flood-opacity="0" result="BackgroundImageFix"/>
<feColorMatrix in="SourceAlpha" type="matrix" values="0 0 0 0 0 0 0 0 0 0 0 0 0 0 0 0 0 0 127 0" result="hardAlpha"/>
<feOffset/>
<feColorMatrix type="matrix" values="0 0 0 0 0 0 0 0 0 0 0 0 0 0 0 0 0 0 0.07 0"/>
<feBlend mode="normal" in2="BackgroundImageFix" result="effect1_dropShadow_2303_4629"/>
<feBlend mode="normal" in="SourceGraphic" in2="effect1_dropShadow_2303_4629" result="shape"/>
</filter>
<filter id="filter2_d_2303_4629" x="14.0625" y="14.1016" width="11.8555" height="11.8555" filterUnits="userSpaceOnUse" color-interpolation-filters="sRGB">
<feFlood flood-opacity="0" result="BackgroundImageFix"/>
<feColorMatrix in="SourceAlpha" type="matrix" values="0 0 0 0 0 0 0 0 0 0 0 0 0 0 0 0 0 0 127 0" result="hardAlpha"/>
<feOffset dy="0.078125"/>
<feGaussianBlur stdDeviation="0.292969"/>
<feComposite in2="hardAlpha" operator="out"/>
<feColorMatrix type="matrix" values="0 0 0 0 0 0 0 0 0 0 0 0 0 0 0 0 0 0 0.1 0"/>
<feBlend mode="normal" in2="BackgroundImageFix" result="effect1_dropShadow_2303_4629"/>
<feBlend mode="normal" in="SourceGraphic" in2="effect1_dropShadow_2303_4629" result="shape"/>
</filter>
<filter id="filter3_d_2303_4629" x="19.5374" y="19.6612" width="7.68266" height="7.68266" filterUnits="userSpaceOnUse" color-interpolation-filters="sRGB">
<feFlood flood-opacity="0" result="BackgroundImageFix"/>
<feColorMatrix in="SourceAlpha" type="matrix" values="0 0 0 0 0 0 0 0 0 0 0 0 0 0 0 0 0 0 127 0" result="hardAlpha"/>
<feOffset dx="0.0629387" dy="0.0629387"/>
<feGaussianBlur stdDeviation="0.0629387"/>
<feColorMatrix type="matrix" values="0 0 0 0 0.113725 0 0 0 0 0.113725 0 0 0 0 0.105882 0 0 0 0.2 0"/>
<feBlend mode="normal" in2="BackgroundImageFix" result="effect1_dropShadow_2303_4629"/>
<feBlend mode="normal" in="SourceGraphic" in2="effect1_dropShadow_2303_4629" result="shape"/>
</filter>
<filter id="filter4_d_2303_4629" x="12.7741" y="16.9913" width="13.2955" height="10.3526" filterUnits="userSpaceOnUse" color-interpolation-filters="sRGB">
<feFlood flood-opacity="0" result="BackgroundImageFix"/>
<feColorMatrix in="SourceAlpha" type="matrix" values="0 0 0 0 0 0 0 0 0 0 0 0 0 0 0 0 0 0 127 0" result="hardAlpha"/>
<feOffset dx="-0.0629387" dy="0.0629387"/>
<feGaussianBlur stdDeviation="0.0629387"/>
<feColorMatrix type="matrix" values="0 0 0 0 0.113725 0 0 0 0 0.113725 0 0 0 0 0.105882 0 0 0 0.2 0"/>
<feBlend mode="normal" in2="BackgroundImageFix" result="effect1_dropShadow_2303_4629"/>
<feBlend mode="normal" in="SourceGraphic" in2="effect1_dropShadow_2303_4629" result="shape"/>
</filter>
<linearGradient id="paint0_linear_2303_4629" x1="19.9902" y1="14.6094" x2="19.9902" y2="25.293" gradientUnits="userSpaceOnUse">
<stop stop-color="#EBF8FF"/>
<stop offset="1" stop-color="white"/>
</linearGradient>
<clipPath id="clip0_2303_4629">
<rect width="359" height="105" fill="white"/>
</clipPath>
</defs>
</svg>
