<svg width="300" height="158" viewBox="0 0 300 158" fill="none" xmlns="http://www.w3.org/2000/svg">
<path d="M149.5 43L144.606 40.5236C142.367 39.3905 139.892 38.8 137.382 38.8H115.377C112.893 38.8 110.443 38.2217 108.222 37.1108L70 18M70 72.4L83.3243 77.0346C86.6177 78.1801 89.4467 80.3701 91.3808 83.2713L97.9999 93.2" stroke="#0327E4" stroke-width="4" stroke-linecap="round"/>
<path d="M230.002 18.8003L193.609 37.1808C191.497 38.2472 189.176 38.8321 186.811 38.8936L162.417 39.5272C160.555 39.5756 158.715 39.9487 156.982 40.6298L140.665 47.04C138.387 47.9349 136.345 49.3405 134.695 51.1486L122.338 64.6941C119.1 68.2427 119.47 73.773 123.15 76.8597V76.8597C126.388 79.5752 131.134 79.4805 134.261 76.6379L141.197 70.3325C144.514 67.317 148.944 65.8313 153.408 66.2372L165.271 67.3157C167.339 67.5036 169.423 67.2874 171.408 66.6792L193.202 60.0003M203.602 92.4003L210.636 83.0218C212.317 80.7802 214.558 79.0193 217.133 77.9155L230.002 72.4003" stroke="#CC1517" stroke-width="4" stroke-linecap="round"/>
<path d="M179.202 90.5736L195.309 106.681C198.433 109.805 203.498 109.805 206.622 106.681V106.681C209.747 103.557 209.747 98.4913 206.622 95.3671L178.001 66.7457" stroke="#0327E4" stroke-width="4" stroke-linecap="round"/>
<path d="M167.313 101.313L185.732 119.733C188.856 122.857 193.921 122.857 197.046 119.733V119.733C200.17 116.609 200.17 111.543 197.045 108.419L179.198 90.5728" stroke="#0327E4" stroke-width="4" stroke-linecap="round"/>
<path d="M156 112.628L172.682 129.31C175.806 132.435 180.871 132.435 183.996 129.31V129.31C187.12 126.186 187.12 121.121 183.996 117.997L167.6 101.601" stroke="#0327E4" stroke-width="4" stroke-linecap="round"/>
<path d="M150.001 129.238L155.516 134.75C158.641 137.873 163.705 137.872 166.829 134.748V134.748C169.954 131.623 169.954 126.557 166.829 123.432L155.302 111.904" stroke="#0327E4" stroke-width="4" stroke-linecap="round"/>
<path d="M110.796 103.257L107.373 106.681C104.248 109.805 99.183 109.805 96.0588 106.681C92.9346 103.557 92.9346 98.4912 96.0588 95.367L99.4825 91.9432C102.607 88.819 107.672 88.819 110.796 91.9432C113.92 95.0674 113.92 100.133 110.796 103.257Z" stroke="#CC1517" stroke-width="4" stroke-linecap="round"/>
<path d="M105.631 108.419L113.143 100.907C116.267 97.7831 121.333 97.7831 124.457 100.907C127.581 104.031 127.581 109.097 124.457 112.221L116.945 119.733C113.82 122.857 108.755 122.857 105.631 119.733C102.507 116.609 102.507 111.543 105.631 108.419Z" stroke="#CC1517" stroke-width="4" stroke-linecap="round"/>
<path d="M118.677 117.996L125.936 110.741C129.06 107.618 134.125 107.618 137.248 110.742C140.373 113.867 140.372 118.933 137.247 122.057L129.989 129.312C126.864 132.435 121.8 132.435 118.676 129.311C115.552 126.187 115.552 121.12 118.677 117.996Z" stroke="#CC1517" stroke-width="4" stroke-linecap="round"/>
<path d="M135.829 123.406L136.367 122.868C139.483 119.755 144.528 119.742 147.66 122.84C150.822 125.968 150.83 131.073 147.677 134.21L147.138 134.747C144.009 137.861 138.949 137.855 135.827 134.733C132.699 131.605 132.7 126.533 135.829 123.406Z" stroke="#CC1517" stroke-width="4" stroke-linecap="round"/>
</svg>
